Coordinates
version=1
nRows=22
nColumns=24
inDegrees=yes

Units are S.I. units (second, meters, Newtons, ...)
Angles are in degrees.

endheader
time	pelvis_tilt	pelvis_list	pelvis_rotation	pelvis_tx	pelvis_ty	pelvis_tz	hip_flexion_r	hip_adduction_r	hip_rotation_r	knee_angle_r	ankle_angle_r	subtalar_angle_r	mtp_angle_r	hip_flexion_l	hip_adduction_l	hip_rotation_l	knee_angle_l	ankle_angle_l	subtalar_angle_l	mtp_angle_l	lumbar_extension	lumbar_bending	lumbar_rotation
      5.32000000	      4.06855933	     -6.66507217	     -4.61864517	     -1.60812563	      0.92562437	      0.25271402	    -21.83667772	      8.72531288	      5.19113829	    -11.20734662	     17.80569589	      5.09979154	      0.00000000	     22.86790263	     -4.83121085	      2.07798778	     -9.36285116	      5.85163513	    -14.70434583	      0.00000000	    -30.00981822	      1.76306783	      8.99799687
      5.33000000	      4.11145399	     -6.08957066	     -4.44543573	     -1.59340064	      0.92546971	      0.25133082	    -21.90791364	      7.97233131	      4.44626806	    -12.68930509	     16.96609792	      5.89804953	      0.00000000	     22.93502373	     -3.85809812	      2.51929102	    -10.94089646	      4.44992130	    -16.08724989	      0.00000000	    -29.99511807	      1.13915353	      8.17460270
      5.34000000	      4.13803703	     -5.49546556	     -4.10836524	     -1.57854386	      0.92559595	      0.24968168	    -21.82496097	      7.24022142	      3.36060376	    -14.37801327	     15.83006365	      6.82104948	      0.00000000	     23.04403529	     -2.80467569	      3.10901604	    -12.58559474	      2.78831371	    -17.47740864	      0.00000000	    -29.95401863	      0.57857136	      7.17784314
      5.35000000	      4.15508817	     -4.91108990	     -3.74550135	     -1.56358385	      0.92606779	      0.24799678	    -21.58514771	      6.51076675	      2.20235887	    -16.30111953	     14.32342517	      7.73795649	      0.00000000	     23.11980414	     -1.76965613	      3.66755538	    -14.19444840	      1.07077433	    -18.75016640	      0.00000000	    -29.89556962	      0.04558942	      6.17939783
      5.36000000	      4.18261544	     -4.35531491	     -3.36721468	     -1.54851429	      0.92687364	      0.24632763	    -21.19421634	      5.79212836	      0.99599899	    -18.47588200	     12.39450198	      8.63299949	      0.00000000	     23.10549523	     -0.79157047	      4.14226377	    -15.70425034	     -0.49311535	    -19.77880325	      0.00000000	    -29.83203801	     -0.45821181	      5.21612266
      5.37000000	      4.21615968	     -3.83652641	     -3.02173591	     -1.53336756	      0.92798001	      0.24476798	    -20.62543161	      5.07462812	     -0.17051007	    -20.91690101	     10.00259036	      9.45427541	      0.00000000	     22.97436954	      0.08646331	      4.44921666	    -17.06735724	     -1.74108276	    -20.47364054	      0.00000000	    -29.75121761	     -0.94372550	      4.34107673
      5.38000000	      4.24702837	     -3.34839072	     -2.78483024	     -1.51819688	      0.92932526	      0.24340062	    -19.83507878	      4.32344120	     -1.22390454	    -23.65087154	      7.14307621	     10.11251824	      0.00000000	     22.70801621	      0.83772225	      4.52911628	    -18.24142380	     -2.53635978	    -20.83602033	      0.00000000	    -29.64303031	     -1.43530221	      3.57354238
      5.39000000	      4.25516276	     -2.93572090	     -2.60103889	     -1.50322496	      0.93075869	      0.24201219	    -18.77290692	      3.57985136	     -2.20724626	    -26.68483829	      3.91447608	     10.73806849	      0.00000000	     22.35897999	      1.46116723	      4.48861488	    -19.23707241	     -2.95576605	    -21.11278227	      0.00000000	    -29.52566410	     -1.84546648	      2.91268391
      5.40000000	      4.26255063	     -2.46312617	     -2.55881080	     -1.48837485	      0.93232410	      0.24093548	    -17.49479696	      2.72657602	     -2.91734442	    -29.92094048	      0.36524636	     11.09553308	      0.00000000	     21.89006865	      2.03840548	      4.18359939	    -20.05035493	     -2.89185648	    -21.05942944	      0.00000000	    -29.38982587	     -2.39521595	      2.35442438
      5.41000000	      3.94724762	     -2.07847940	     -2.61855013	     -1.47391422	      0.93342919	      0.23996035	    -15.61036300	      1.94222816	     -3.38822261	    -33.40502692	     -3.30281687	     11.23500172	      0.00000000	     21.74543591	      2.44957554	      3.69465790	    -20.82335523	     -2.28171289	    -20.72778451	      0.00000000	    -28.89547206	     -2.83840333	      1.92534216
      5.42000000	      3.94052471	     -1.45374238	     -2.69182615	     -1.45958689	      0.93489880	      0.23896812	    -13.91968742	      0.87717126	     -3.82417318	    -36.91641158	     -6.87321274	     11.11124958	      0.00000000	     21.13301302	      3.11843249	      3.20162499	    -21.32832012	     -1.57446407	    -20.54640155	      0.00000000	    -28.76442929	     -3.55536150	      1.34149022
      5.43000000	      3.37808323	     -1.03596198	     -3.00497218	     -1.44593474	      0.93559439	      0.23858307	    -11.37677131	      0.11008608	     -3.64621687	    -40.58191697	    -10.30324792	     10.60114189	      0.00000000	     21.18947584	      3.39676668	      2.31122702	    -21.96612542	     -0.15821569	    -19.61029743	      0.00000000	    -28.02556097	     -4.13565416	      1.15794604
      5.44000000	      2.87052066	     -0.41803076	     -3.19138494	     -1.43253030	      0.93616037	      0.23797002	     -8.79701228	     -0.82086818	     -3.59462273	    -44.21576406	    -13.19035012	      9.77770830	      0.00000000	     21.13260419	      3.94898993	      1.60423007	    -22.44272587	      1.12565521	    -18.87532608	      0.00000000	    -27.37130334	     -4.85163801	      0.67552866
      5.45000000	      2.44263150	      0.26216493	     -3.39547513	     -1.41934641	      0.93674830	      0.23742993	     -6.23728414	     -1.77544073	     -3.45071173	    -47.71974104	    -15.56897505	      8.58312304	      0.00000000	     20.92520143	      4.55873876	      0.84931591	    -22.76899081	      2.47664195	    -18.10409401	      0.00000000	    -26.80579374	     -5.63203905	      0.22891869
      5.46000000	      2.17330446	      0.98056312	     -3.60400047	     -1.40635203	      0.93753689	      0.23693695	     -3.82314583	     -2.72500419	     -3.24003562	    -51.00989598	    -17.41125167	      6.97982580	      0.00000000	     20.46029917	      5.22914084	      0.14789697	    -22.89828400	      3.71912134	    -17.44706413	      0.00000000	    -26.43560927	     -6.44597751	     -0.22261975
      5.47000000	      1.78344167	      1.70045063	     -3.71158948	     -1.39368201	      0.93805061	      0.23636259	     -1.25245809	     -3.61868767	     -3.05243897	    -54.15350319	    -18.36180990	      5.31714431	      0.00000000	     20.12100561	      5.92803382	     -0.43476964	    -22.97794057	      4.89865120	    -16.69471424	      0.00000000	    -25.96125060	     -7.20810377	     -0.76916317
      5.48000000	      1.65665087	      2.37754104	     -3.81302350	     -1.38101035	      0.93903295	      0.23574431	      0.96951625	     -4.45510354	     -2.86288935	    -56.93074035	    -18.72358688	      3.41847022	      0.00000000	     19.36972041	      6.64206707	     -0.87343169	    -22.80860508	      5.90259557	    -16.21974366	      0.00000000	    -25.78312341	     -7.89803060	     -1.31425560
      5.49000000	      1.58533327	      2.97046283	     -3.84719867	     -1.36854214	      0.94019069	      0.23501711	      3.09218402	     -5.18511430	     -2.70436515	    -59.39997112	    -18.43466859	      1.61888998	      0.00000000	     18.51457051	      7.31473949	     -1.17423020	    -22.53919260	      6.73624539	    -15.81850867	      0.00000000	    -25.71058208	     -8.45066964	     -1.91901350
      5.50000000	      1.56668432	      3.44207384	     -3.82392689	     -1.35615231	      0.94154736	      0.23417488	      5.08485094	     -5.77307609	     -2.58232428	    -61.50915887	    -17.59455804	     -0.05437322	      0.00000000	     17.53386500	      7.91182873	     -1.27618686	    -22.15315900	      7.45856254	    -15.53796031	      0.00000000	    -25.70869085	     -8.82142043	     -2.52992059
      5.51000000	      1.69450470	      3.76977481	     -3.71629026	     -1.34383802	      0.94326400	      0.23318308	      6.81849086	     -6.21087627	     -2.55108421	    -63.21708500	    -16.36421949	     -1.58193725	      0.00000000	     16.32544455	      8.41938543	     -1.12039496	    -21.66461205	      8.08606499	    -15.33554322	      0.00000000	    -25.90428727	     -8.98447706	     -3.16730330
      5.52000000	      1.80009715	      3.95383276	     -3.62501187	     -1.33162008	      0.94506844	      0.23220695	      8.51464290	     -6.46958857	     -2.51309855	    -64.56258926	    -14.89582550	     -3.05262159	      0.00000000	     15.10031823	      8.77359826	     -0.93823928	    -21.10838782	      8.62464607	    -15.22695678	      0.00000000	    -26.06539515	     -8.97273147	     -3.72051193
      5.53000000	      1.88311970	      4.03163723	     -3.50083994	     -1.31948803	      0.94690633	      0.23117802	     10.16128885	     -6.59695983	     -2.51671342	    -65.55767209	    -13.24570110	     -4.41246913	      0.00000000	     13.86768871	      9.02006192	     -0.70137233	    -20.49893469	      9.10262225	    -15.15205192	      0.00000000	    -26.20007962	     -8.82012619	     -4.24401090
